# xmcd
#
# Track frame offsets: 
#        150
#        29048
#        53845
#        85885
#        110027
#        142627
#        165651
#        188471
#        214584
#        251865
#        283145
#
# Disc length: 4198 seconds
#
# Revision: 4
# Processed by: cddbd v1.5.2PL0 Copyright (c) Steve Scherf et al.
# Submitted via: ExactAudioCopyFreeDBPlugin 1.0
#
DISCID=9b10640b
DTITLE=Various Artist - 2007 - 12'' 80s Grooves Cd 3
DYEAR=2007
DGENRE=Pop
TTITLE0=Jocelyn Brown - Somebody Else's Guy [12"]
TTITLE1=Mary Jane Girls - All Night Long [12"]
TTITLE2=Fatback Band - I Found Lovin' [12" Mix]
TTITLE3=Dennis Edwards - Don't Look Any Further [12"]
TTITLE4=Gwen Guthrie - Ain't Nothing Going On But The Rent [12" Mix]
TTITLE5=Oran Juice Jones - The Rain [12" Mix]
TTITLE6=Commodores - Night Shift [Long Version]
TTITLE7=Will Downing - A Love Supreme [Extended]
TTITLE8=Third World - Now That We've Found Love [12"]
TTITLE9=Gregory Isaacs - Night Nurse [12"]
TTITLE10=Grace Jones - My Jamaican Guy [12"]
EXTD=
EXTT0=
EXTT1=
EXTT2=
EXTT3=
EXTT4=
EXTT5=
EXTT6=
EXTT7=
EXTT8=
EXTT9=
EXTT10=
PLAYORDER=
